<svg version="1.2" xmlns="http://www.w3.org/2000/svg" viewBox="0 0 296 157" width="296" height="157">
	<title>speed-line-right-svg</title>
	<style>
		.s0 { fill: #ff4c0d } 
	</style>
	<path id="Layer" class="s0" d="m65.1-160.4c-48.4 36.2-71.4 99.7-63.6 159 8.1 61.4 50.8 110.3 109.5 129 56.6 18.1 124.1 8 166.7-35.6 39.9-40.8 57.6-113.1 9.9-155.5-40.2-35.8-110.7-35.2-147.5 5.3-36.7 40.5-33.8 105.4-3.8 148.9 37.9 54.8 110.8 61.2 171.4 53.6 73.4-9 149.5-40.3 223.4-17.6 58.4 18 105 66.1 126 122.9 10.7 28.3 14.2 58.9 10.1 89-4.7 32.7-22.6 67.1-52 84.1-32.6 18.9-69.2 3.9-86.7-27.8-19.3-35-11.9-76.7-3.6-113.7 15.7-70.6 42.7-146.2 101.4-192.6 52-41 129.8-57.2 186.3-15.6 64.2 47.1 73.7 134 62 206.9-6.4 39.5-17.8 78.2-28.9 116.6-11.2 39.1-22.7 78.1-32.1 117.7-17.7 75-27.5 153-12.1 229.3 14.4 71.7 50.8 139.2 112.9 180 57.8 38.2 128.9 51.2 197.2 49.2 85.3-2.5 168.5-26.2 250.8-46.4l264.3-64.8 126.7-31.1c2.7-0.7 2-5-0.7-4.4l-261.1 64c-84.9 20.9-169.6 43.7-255.2 61.7-76.2 16-155.9 25-232.4 5.6-33.8-8.6-66.5-22.5-95-42.9-30.9-22.5-56-51.9-73.4-85.9-76.8-147.2-18.2-313.9 23.2-461.8 19.7-70.5 37.9-147.3 12.3-218.8-11.1-31-30-59.9-57-79.3-24.5-17.3-54.2-25.9-84.2-24.5-65 2.6-121.1 43.1-155.5 96.4-19.3 29.8-32.7 63.1-42.8 97-10.3 34.6-20.4 72.2-19.6 108.5 0.6 31 12.7 64 40.3 80.8 24.7 14.9 53.9 9.9 75.7-7.6 47.5-38.2 53.6-106.8 36.5-161.6-17.1-54.3-57-101.8-108.6-126-65.7-30.8-137.9-12.4-205.4 1-64 12.7-145.4 22.1-196.8-28-41-40-50.4-113.7-11.7-158.3 39.1-45.2 122.4-41 156.2 8.7 40.4 59.7-9.1 137.9-66.4 163.4-57.2 25.4-129.8 14.2-177.1-27-49.2-43-61.4-114.9-40.1-175 10.2-29.2 28.7-54.7 53.4-73.4 2.2-1.7-0.6-5-2.9-3.4z"/>
</svg>