<?xml version="1.0" encoding="utf-8"?><svg xmlns="http://www.w3.org/2000/svg" xmlns:xlink="http://www.w3.org/1999/xlink"><symbol viewBox="0 0 7 14" id="--arrow" xmlns="http://www.w3.org/2000/svg"><path fill-rule="evenodd" clip-rule="evenodd" d="M5.829 14a.998.998 0 0 1-.78-.373l-4.828-6A1 1 0 0 1 .23 6.36l5-6a1 1 0 1 1 1.536 1.28L2.294 7.011l4.315 5.362A1 1 0 0 1 5.828 14"/></symbol><symbol fill="none" viewBox="0 0 128 40" id="--dark-android" xmlns="http://www.w3.org/2000/svg"><g clip-path="url(#ba)"><mask id="bb" style="mask-type:luminance" maskUnits="userSpaceOnUse" x="0" y="0" width="128" height="40"><path d="M128 0H0v40h128V0Z" fill="#fff"/></mask><g mask="url(#bb)"><path d="M124 .5H4A3.5 3.5 0 0 0 .5 4v32A3.5 3.5 0 0 0 4 39.5h120a3.5 3.5 0 0 0 3.5-3.5V4A3.5 3.5 0 0 0 124 .5Z" fill="#000" stroke="#000"/><path d="M11.392 8.352c-.262.277-.417.707-.417 1.265V29.52c0 .558.155.987.417 1.264l11.217-11.217L11.392 8.352ZM11.458 8.287l-.066.065c.022-.023.053-.033.076-.055l-.01-.01ZM11.459 30.85l.01-.01c-.024-.021-.055-.031-.077-.055l.067.065Z" fill="#00E3FF"/><path d="m30.814 18.27-4.404-2.502-3.801 3.8 3.8 3.802 4.404-2.501c1.259-.715 1.259-1.884 0-2.6Z" fill="#FFE000"/><path d="M22.609 19.568 11.392 30.785c.022.024.053.034.077.055.42.376 1.063.415 1.793 0l13.063-7.421.085-.05-3.801-3.801Z" fill="#FF3A44"/><path d="m22.609 19.569 3.8-3.801v-.001l-13.147-7.47c-.73-.415-1.375-.376-1.794 0-.023.022-.054.032-.076.055l11.217 11.217Z" fill="#00F076"/><path d="M56.003 22.233c-2.117 0-3.842 1.609-3.842 3.828 0 2.204 1.725 3.828 3.842 3.828s3.842-1.624 3.842-3.828c0-2.218-1.725-3.828-3.842-3.828Zm0 6.148c-1.16 0-2.16-.957-2.16-2.32 0-1.377 1-2.32 2.16-2.32 1.16 0 2.16.942 2.16 2.32 0 1.363-1 2.32-2.16 2.32ZM64.385 22.233c-2.117 0-3.842 1.609-3.842 3.828 0 2.204 1.725 3.828 3.842 3.828s3.842-1.624 3.842-3.828c.001-2.218-1.725-3.828-3.842-3.828Zm0 6.148c-1.16 0-2.16-.957-2.16-2.32 0-1.377 1.001-2.32 2.16-2.32 1.159 0 2.16.942 2.16 2.32.001 1.363-1 2.32-2.16 2.32ZM100.985 18.406h-1.68v11.251h1.68V18.406ZM46.032 23.409v1.623h3.886c-.116.913-.42 1.58-.885 2.044-.565.565-1.45 1.189-3.001 1.189-2.392 0-4.263-1.928-4.263-4.321s1.87-4.321 4.263-4.321c1.291 0 2.233.508 2.929 1.16l1.145-1.145C49.135 18.71 47.844 18 46.032 18 42.755 18 40 20.668 40 23.945s2.755 5.945 6.032 5.945c1.769 0 3.103-.58 4.147-1.667 1.073-1.073 1.407-2.581 1.407-3.799 0-.377-.029-.725-.087-1.015h-5.467ZM105.11 22.213c-1.216 0-2.475.536-2.996 1.723l1.491.622c.318-.622.912-.825 1.534-.825.868 0 1.751.521 1.766 1.447v.116c-.304-.174-.955-.434-1.751-.434-1.607 0-3.242.883-3.242 2.533 0 1.505 1.317 2.475 2.794 2.475 1.129 0 1.751-.507 2.142-1.1h.058v.868h1.621v-4.314c-.001-1.997-1.492-3.111-3.417-3.111Zm-.203 6.166c-.55 0-1.317-.275-1.317-.955 0-.868.955-1.201 1.78-1.201.738 0 1.086.159 1.534.376a2.034 2.034 0 0 1-1.997 1.78ZM112.507 27.337h-.058l-1.997-4.878h-1.809l2.996 6.818-1.708 3.792h1.751l4.618-10.61h-1.868l-1.925 4.878ZM74.675 23.089h-.059c-.377-.449-1.102-.855-2.015-.855-1.914 0-3.668 1.682-3.668 3.842 0 2.146 1.754 3.813 3.668 3.813.913 0 1.638-.406 2.015-.87h.058v.551c0 1.464-.783 2.247-2.044 2.247-1.029 0-1.667-.739-1.928-1.363l-1.464.609c.42 1.015 1.537 2.262 3.393 2.262 1.972 0 3.64-1.16 3.64-3.987v-6.873h-1.596v.624Zm-1.93 5.292c-1.16 0-2.13-.971-2.13-2.305 0-1.348.971-2.334 2.13-2.334 1.145 0 2.044.986 2.044 2.334.001 1.334-.898 2.305-2.044 2.305ZM94.688 18.406h-4.024v11.251h1.68v-4.263h2.344c1.862 0 3.691-1.348 3.691-3.494s-1.829-3.494-3.69-3.494Zm.044 5.422h-2.389v-3.857h2.388c1.256 0 1.97 1.04 1.97 1.928 0 .873-.714 1.929-1.969 1.929ZM79.111 18.406h-1.682v11.251h1.682V18.406ZM86.81 24.669c-.319-.855-1.29-2.436-3.277-2.436-1.972 0-3.61 1.551-3.61 3.828 0 2.146 1.624 3.828 3.8 3.828 1.753 0 2.768-1.073 3.19-1.696l-1.306-.87c-.435.638-1.029 1.058-1.885 1.058-.856 0-1.464-.392-1.856-1.16l5.118-2.117-.174-.435Zm-5.22 1.276c-.044-1.479 1.145-2.233 2.001-2.233.667 0 1.233.333 1.421.812l-3.422 1.421ZM40.343 13.18l.813-.21c.061.313.225.627.492.94.27.314.625.47 1.068.47.451 0 .807-.115 1.068-.347.26-.231.39-.511.39-.84 0-.354-.137-.635-.412-.843-.276-.21-.65-.316-1.125-.316h-.409v-.743c.393 0 .693-.022.9-.066a1.01 1.01 0 0 0 .55-.347.95.95 0 0 0 .242-.637.979.979 0 0 0-.33-.734c-.217-.208-.51-.312-.883-.312-.325 0-.604.082-.835.246a1.24 1.24 0 0 0-.474.646c-.088.267-.132.466-.132.598l-.818-.185c.202-1.368.958-2.052 2.268-2.052.63 0 1.13.176 1.498.527.37.349.554.757.554 1.226 0 .6-.284 1.067-.852 1.398.328.09.602.277.821.558.223.278.334.612.334 1.002 0 .553-.215 1.018-.646 1.393-.427.372-.996.558-1.705.558-1.218 0-2.011-.643-2.377-1.93Zm8.736 1.244a2.937 2.937 0 0 1-.848.528c-.27.102-.56.153-.87.153-.513 0-.907-.124-1.182-.373a1.247 1.247 0 0 1-.413-.962c0-.229.05-.437.153-.624.106-.19.242-.343.41-.458.169-.114.36-.2.57-.259.156-.04.39-.08.703-.119.64-.076 1.11-.166 1.411-.272l.005-.207c0-.322-.075-.549-.224-.68-.203-.18-.503-.269-.901-.269-.373 0-.648.066-.827.198-.175.129-.306.359-.39.69l-.774-.105c.07-.331.186-.598.347-.8.161-.205.394-.362.699-.47a3.08 3.08 0 0 1 1.059-.168c.398 0 .722.047.971.141.25.094.432.213.55.356.117.14.199.32.245.536.027.135.04.378.04.73v1.054c0 .736.016 1.202.048 1.398.036.193.103.38.203.558h-.827a1.678 1.678 0 0 1-.158-.576Zm-.066-1.766c-.287.117-.718.216-1.292.299-.325.046-.555.1-.69.158a.684.684 0 0 0-.422.633c0 .21.08.386.238.527.16.14.395.21.703.21.305 0 .576-.065.813-.197.237-.135.411-.318.523-.55.085-.178.127-.442.127-.79v-.29Zm2.035-2.325h1.824c.448 0 .78.038.997.114.22.074.407.21.563.409.158.2.237.438.237.716 0 .223-.047.418-.14.585-.092.164-.23.302-.414.413.22.073.402.21.545.413.147.2.22.436.22.712-.03.442-.188.77-.475.984-.287.214-.704.321-1.252.321h-2.105v-4.667Zm.79 1.964h.845c.337 0 .568-.017.694-.052a.732.732 0 0 0 .338-.211c.1-.109.15-.238.15-.387 0-.246-.088-.418-.264-.514-.173-.097-.47-.145-.892-.145h-.87v1.31Zm0 2.053h1.042c.449 0 .756-.052.923-.154.167-.106.255-.286.264-.54a.664.664 0 0 0-.145-.414.615.615 0 0 0-.378-.242c-.155-.035-.404-.052-.747-.052h-.958v1.402Zm6.927.074a2.935 2.935 0 0 1-.849.528c-.269.102-.56.153-.87.153-.512 0-.906-.124-1.182-.373a1.247 1.247 0 0 1-.413-.962c0-.229.051-.437.154-.624.105-.19.242-.343.409-.458.17-.114.36-.2.571-.259.155-.04.39-.08.703-.119.639-.076 1.109-.166 1.41-.272.004-.108.005-.177.005-.207 0-.322-.075-.549-.224-.68-.202-.18-.502-.269-.9-.269-.373 0-.648.066-.827.198-.176.129-.306.359-.391.69l-.774-.105c.07-.331.186-.598.348-.8.16-.205.394-.362.698-.47a3.08 3.08 0 0 1 1.06-.168c.398 0 .722.047.97.141.25.094.433.213.55.356.117.14.2.32.246.536.026.135.04.378.04.73v1.054c0 .736.016 1.202.048 1.398.035.193.102.38.202.558h-.826a1.678 1.678 0 0 1-.158-.576Zm-.066-1.766c-.287.117-.718.216-1.292.299-.325.046-.555.1-.69.158a.683.683 0 0 0-.422.633c0 .21.079.386.237.527.161.14.396.21.703.21.305 0 .576-.065.813-.197.238-.135.412-.318.523-.55.085-.178.128-.442.128-.79v-.29Zm2.034-2.325h.791v1.942h2.193v-1.942h.791V15h-.79v-2.07h-2.194V15h-.79v-4.667Zm4.544 0h3.793v.655h-1.503V15h-.787v-4.012h-1.503v-.655Zm7.489 4.091a2.936 2.936 0 0 1-.849.528c-.27.102-.56.153-.87.153-.512 0-.906-.124-1.182-.373a1.247 1.247 0 0 1-.413-.962c0-.229.051-.437.154-.624.105-.19.242-.343.409-.458.17-.114.36-.2.57-.259.156-.04.39-.08.704-.119.639-.076 1.109-.166 1.41-.272.004-.108.005-.177.005-.207 0-.322-.075-.549-.224-.68-.202-.18-.502-.269-.9-.269-.373 0-.648.066-.827.198-.176.129-.306.359-.391.69l-.774-.105c.07-.331.186-.598.348-.8.16-.205.394-.362.698-.47a3.08 3.08 0 0 1 1.06-.168c.398 0 .721.047.97.141.25.094.433.213.55.356.117.14.2.32.246.536.026.135.04.378.04.73v1.054c0 .736.016 1.202.048 1.398.035.193.102.38.202.558h-.826a1.68 1.68 0 0 1-.158-.576Zm-.066-1.766c-.287.117-.718.216-1.292.299-.326.046-.555.1-.69.158a.683.683 0 0 0-.422.633c0 .21.079.386.237.527.161.14.396.21.703.21.305 0 .576-.065.813-.197.238-.135.412-.318.523-.55.085-.178.128-.442.128-.79v-.29Zm4.851-2.325v2.017c.252 0 .43-.048.532-.145.103-.097.252-.378.448-.844.185-.442.35-.725.497-.848.143-.12.372-.18.685-.18h.29v.655l-.215-.005c-.21 0-.346.031-.404.093-.062.064-.156.256-.281.575-.118.305-.226.516-.326.633-.1.117-.255.224-.466.321.343.09.677.407 1.002.95l.87 1.445h-.87l-.848-1.446c-.172-.293-.323-.485-.452-.575a.78.78 0 0 0-.462-.137V15h-.808v-2.158a.774.774 0 0 0-.457.136c-.13.088-.28.28-.453.576L74.985 15h-.87l.866-1.446c.328-.542.663-.858 1.006-.949-.235-.108-.399-.226-.492-.352-.094-.129-.235-.433-.422-.914-.065-.16-.133-.26-.207-.299a.783.783 0 0 0-.338-.057l-.233.005v-.655h.11c.305 0 .518.02.641.057a.655.655 0 0 1 .334.233c.1.117.229.363.387.738.193.46.34.74.44.84.102.1.28.15.536.15v-2.018h.808Zm3.2 0h.79v3.56l2.193-3.56h.853V15h-.791v-3.538L81.603 15h-.852v-4.667Zm4.6 0h3.793v.655h-1.503V15h-.787v-4.012h-1.502v-.655Zm4.549 0h.79v3.56l2.194-3.56h.852V15h-.79v-3.538L90.751 15H89.9v-4.667Zm7.536 0h1.824c.448 0 .781.038.998.114.22.074.407.21.562.409.159.2.238.438.238.716 0 .223-.047.418-.141.585a1.121 1.121 0 0 1-.413.413c.22.073.401.21.545.413.146.2.22.436.22.712-.03.442-.188.77-.475.984-.287.214-.705.321-1.252.321h-2.106v-4.667Zm.791 1.964h.844c.337 0 .569-.017.695-.052a.734.734 0 0 0 .338-.211.55.55 0 0 0 .149-.387c0-.246-.087-.418-.263-.514-.173-.097-.47-.145-.892-.145h-.87v1.31Zm0 2.053h1.042c.448 0 .756-.052.923-.154.167-.106.255-.286.264-.54a.668.668 0 0 0-.145-.414.616.616 0 0 0-.378-.242c-.156-.035-.405-.052-.748-.052h-.957v1.402Z" fill="#F1F1F1"/></g></g><defs><clipPath id="ba"><path fill="#fff" d="M0 0h128v40H0z"/></clipPath></defs></symbol><symbol fill="none" viewBox="0 0 120 40" id="--dark-apple" xmlns="http://www.w3.org/2000/svg"><g clip-path="url(#ca)"><path d="M110.135 0H9.535c-.367 0-.73 0-1.095.002-.306.002-.61.008-.919.013C6.85.023 6.18.082 5.517.19a6.665 6.665 0 0 0-1.9.627A6.438 6.438 0 0 0 .193 5.521a12.993 12.993 0 0 0-.179 2.002c-.01.307-.01.615-.015.921V31.56c.005.31.006.61.015.921.008.671.068 1.34.18 2.002.11.663.32 1.306.624 1.905.303.598.701 1.143 1.179 1.614.473.477 1.019.875 1.618 1.179.599.304 1.24.517 1.901.63.663.11 1.333.168 2.004.177.31.007.613.011.919.011.366.002.728.002 1.095.002h100.6c.359 0 .724 0 1.084-.002.304 0 .617-.004.922-.01.67-.01 1.338-.068 2-.178a6.808 6.808 0 0 0 1.908-.63A6.296 6.296 0 0 0 117.666 38a6.405 6.405 0 0 0 1.182-1.614c.302-.6.51-1.242.619-1.905.111-.661.173-1.33.185-2.002.004-.31.004-.61.004-.921.008-.364.008-.725.008-1.094V9.536c0-.366 0-.73-.008-1.092 0-.306 0-.614-.004-.92a13.57 13.57 0 0 0-.185-2.003 6.648 6.648 0 0 0-.619-1.903 6.469 6.469 0 0 0-2.799-2.8 6.77 6.77 0 0 0-1.908-.627c-.661-.11-1.33-.169-2-.176-.305-.005-.618-.011-.922-.013-.36-.002-.725-.002-1.084-.002Z" fill="#000"/><path d="M8.445 39.125c-.305 0-.602-.004-.904-.01a12.696 12.696 0 0 1-1.87-.164 5.884 5.884 0 0 1-1.656-.548 5.406 5.406 0 0 1-1.397-1.016 5.321 5.321 0 0 1-1.02-1.397 5.722 5.722 0 0 1-.544-1.657 12.413 12.413 0 0 1-.166-1.875c-.007-.21-.015-.913-.015-.913v-23.1s.009-.692.015-.895a12.37 12.37 0 0 1 .165-1.872 5.755 5.755 0 0 1 .544-1.662c.26-.518.603-.99 1.015-1.398A5.565 5.565 0 0 1 5.668 1.05C6.288.95 6.915.895 7.543.887l.902-.012h102.769l.913.013a12.37 12.37 0 0 1 1.858.162 5.933 5.933 0 0 1 1.671.548 5.589 5.589 0 0 1 2.415 2.42 5.74 5.74 0 0 1 .535 1.649c.104.624.162 1.255.174 1.887.003.283.003.588.003.89.008.375.008.732.008 1.092v20.929c0 .363 0 .718-.008 1.075 0 .325 0 .623-.004.93-.011.62-.069 1.24-.171 1.853a5.716 5.716 0 0 1-.54 1.67 5.47 5.47 0 0 1-1.015 1.386 5.414 5.414 0 0 1-1.4 1.022 5.855 5.855 0 0 1-1.668.55c-.618.101-1.243.156-1.869.163-.293.007-.599.011-.897.011l-1.084.002-101.69-.002Z" fill="#000"/><path d="M24.769 20.3a4.947 4.947 0 0 1 2.356-4.151 5.065 5.065 0 0 0-3.99-2.158c-1.68-.176-3.308 1.005-4.164 1.005-.872 0-2.19-.988-3.608-.958a5.315 5.315 0 0 0-4.473 2.727c-1.934 3.349-.491 8.27 1.361 10.977.927 1.325 2.01 2.805 3.428 2.753 1.387-.058 1.905-.885 3.58-.885 1.658 0 2.144.885 3.59.852 1.489-.025 2.426-1.332 3.32-2.67a10.963 10.963 0 0 0 1.52-3.092 4.782 4.782 0 0 1-2.92-4.4ZM22.037 12.21a4.873 4.873 0 0 0 1.115-3.49 4.958 4.958 0 0 0-3.208 1.66 4.637 4.637 0 0 0-1.143 3.361 4.1 4.1 0 0 0 3.236-1.53ZM42.302 27.14H37.57l-1.137 3.356h-2.005l4.484-12.418h2.083l4.483 12.418h-2.039l-1.136-3.356Zm-4.243-1.55h3.752l-1.85-5.446h-.051l-1.85 5.447ZM55.16 25.97c0 2.813-1.506 4.62-3.779 4.62a3.07 3.07 0 0 1-2.848-1.583h-.043v4.484H46.63V21.442h1.8v1.506h.033a3.212 3.212 0 0 1 2.883-1.6c2.298 0 3.813 1.816 3.813 4.622Zm-1.91 0c0-1.833-.948-3.038-2.393-3.038-1.42 0-2.375 1.23-2.375 3.038 0 1.824.955 3.046 2.375 3.046 1.445 0 2.392-1.197 2.392-3.046ZM65.124 25.97c0 2.813-1.505 4.62-3.778 4.62a3.07 3.07 0 0 1-2.848-1.583h-.043v4.484h-1.859V21.442h1.799v1.506h.034a3.212 3.212 0 0 1 2.883-1.6c2.298 0 3.813 1.816 3.813 4.622Zm-1.91 0c0-1.833-.947-3.038-2.392-3.038-1.42 0-2.375 1.23-2.375 3.038 0 1.824.955 3.046 2.375 3.046 1.445 0 2.392-1.197 2.392-3.046ZM71.71 27.036c.138 1.232 1.335 2.04 2.97 2.04 1.566 0 2.693-.809 2.693-1.919 0-.964-.68-1.54-2.29-1.936l-1.609-.388c-2.28-.55-3.339-1.617-3.339-3.348 0-2.142 1.867-3.614 4.519-3.614 2.624 0 4.423 1.472 4.483 3.614h-1.876c-.112-1.239-1.136-1.987-2.634-1.987-1.497 0-2.521.757-2.521 1.858 0 .878.654 1.395 2.255 1.79l1.368.336c2.548.603 3.606 1.626 3.606 3.443 0 2.323-1.85 3.778-4.793 3.778-2.754 0-4.614-1.42-4.734-3.667h1.902ZM83.346 19.3v2.142h1.722v1.472h-1.722v4.991c0 .776.345 1.137 1.102 1.137.204-.004.408-.018.611-.043v1.463c-.34.064-.686.092-1.032.086-1.833 0-2.548-.689-2.548-2.444v-5.19h-1.316v-1.472h1.316V19.3h1.867ZM86.065 25.97c0-2.849 1.678-4.639 4.294-4.639 2.625 0 4.295 1.79 4.295 4.639 0 2.856-1.661 4.638-4.295 4.638-2.633 0-4.294-1.782-4.294-4.638Zm6.695 0c0-1.954-.895-3.108-2.401-3.108-1.506 0-2.4 1.162-2.4 3.108 0 1.962.894 3.106 2.4 3.106 1.506 0 2.401-1.144 2.401-3.106ZM96.186 21.442h1.772v1.541h.043a2.16 2.16 0 0 1 2.178-1.635c.214-.001.428.022.637.069v1.738a2.591 2.591 0 0 0-.835-.112 1.872 1.872 0 0 0-1.936 2.083v5.37h-1.859v-9.054ZM109.384 27.837c-.25 1.643-1.85 2.771-3.898 2.771-2.634 0-4.269-1.764-4.269-4.595 0-2.84 1.644-4.682 4.191-4.682 2.505 0 4.08 1.72 4.08 4.466v.637h-6.395v.112a2.353 2.353 0 0 0 .639 1.832 2.364 2.364 0 0 0 1.797.732 2.045 2.045 0 0 0 2.091-1.273h1.764Zm-6.282-2.702h4.526a2.167 2.167 0 0 0-.608-1.634 2.168 2.168 0 0 0-1.612-.664 2.291 2.291 0 0 0-2.306 2.298ZM37.826 8.731a2.64 2.64 0 0 1 2.808 2.965c0 1.906-1.03 3.002-2.808 3.002h-2.155V8.73h2.155Zm-1.228 5.123h1.125a1.876 1.876 0 0 0 1.967-2.146 1.88 1.88 0 0 0-1.967-2.134h-1.125v4.28ZM41.68 12.444a2.132 2.132 0 1 1 4.248 0 2.135 2.135 0 1 1-4.247 0Zm3.334 0c0-.976-.439-1.546-1.208-1.546-.773 0-1.207.57-1.207 1.546 0 .984.434 1.55 1.207 1.55.77 0 1.208-.57 1.208-1.55ZM51.573 14.698h-.922l-.93-3.317h-.07l-.927 3.317h-.913l-1.242-4.503h.902l.806 3.436h.067l.926-3.436h.852l.926 3.436h.07l.803-3.436h.889l-1.237 4.503ZM53.854 10.195h.855v.715h.066a1.348 1.348 0 0 1 1.344-.802 1.464 1.464 0 0 1 1.559 1.675v2.915h-.889v-2.692c0-.724-.314-1.084-.972-1.084a1.03 1.03 0 0 0-1.075 1.141v2.635h-.889v-4.503ZM59.094 8.437h.889v6.26h-.89v-6.26ZM61.218 12.444a2.134 2.134 0 1 1 4.247 0 2.133 2.133 0 1 1-4.247 0Zm3.333 0c0-.976-.439-1.546-1.208-1.546-.773 0-1.207.57-1.207 1.546 0 .984.434 1.55 1.207 1.55.77 0 1.208-.57 1.208-1.55ZM66.4 13.424c0-.81.604-1.277 1.676-1.344l1.22-.07v-.389c0-.476-.315-.744-.922-.744-.496 0-.84.182-.939.5h-.86c.09-.773.818-1.27 1.84-1.27 1.128 0 1.765.563 1.765 1.514v3.077h-.855v-.633h-.07a1.515 1.515 0 0 1-1.353.707 1.36 1.36 0 0 1-1.501-1.348Zm2.895-.384v-.377l-1.1.07c-.62.042-.9.253-.9.65 0 .405.351.64.834.64a1.06 1.06 0 0 0 1.166-.983ZM71.348 12.444c0-1.423.732-2.324 1.87-2.324a1.485 1.485 0 0 1 1.38.79h.067V8.437h.888v6.26h-.851v-.71h-.07a1.563 1.563 0 0 1-1.415.785c-1.145 0-1.869-.901-1.869-2.328Zm.918 0c0 .955.45 1.53 1.203 1.53.75 0 1.212-.583 1.212-1.526 0-.938-.468-1.53-1.212-1.53-.748 0-1.203.58-1.203 1.526ZM79.23 12.444a2.134 2.134 0 1 1 4.247 0 2.135 2.135 0 1 1-4.247 0Zm3.333 0c0-.976-.439-1.546-1.208-1.546-.772 0-1.207.57-1.207 1.546 0 .984.435 1.55 1.207 1.55.77 0 1.208-.57 1.208-1.55ZM84.67 10.195h.855v.715h.066a1.348 1.348 0 0 1 1.344-.802 1.464 1.464 0 0 1 1.559 1.675v2.915h-.889v-2.692c0-.724-.314-1.084-.972-1.084a1.03 1.03 0 0 0-1.075 1.141v2.635h-.889v-4.503ZM93.515 9.074v1.141h.976v.749h-.976v2.315c0 .472.195.678.637.678.113 0 .226-.007.339-.02v.74c-.16.029-.322.044-.484.046-.988 0-1.382-.348-1.382-1.216v-2.543h-.714v-.749h.715V9.074h.89ZM95.705 8.437h.88v2.482h.07a1.385 1.385 0 0 1 1.374-.807 1.482 1.482 0 0 1 1.55 1.678v2.908h-.889V12.01c0-.72-.335-1.084-.963-1.084a1.05 1.05 0 0 0-1.134 1.142v2.63h-.888V8.437ZM104.761 13.482a1.823 1.823 0 0 1-1.951 1.303 2.045 2.045 0 0 1-2.08-2.325 2.083 2.083 0 0 1 1.212-2.172c.272-.121.567-.183.864-.18 1.253 0 2.009.856 2.009 2.27v.31h-3.18v.05a1.19 1.19 0 0 0 1.2 1.29 1.078 1.078 0 0 0 1.071-.546h.855Zm-3.126-1.451h2.275a1.09 1.09 0 0 0-1.109-1.167 1.15 1.15 0 0 0-1.166 1.167Z" fill="#fff"/></g><defs><clipPath id="ca"><path fill="#fff" d="M0 0h119.664v40H0z"/></clipPath></defs></symbol><symbol viewBox="0 0 326 316" id="--design" xmlns="http://www.w3.org/2000/svg"><path d="M260.8.6c48.5 36.2 71.4 99.7 63.6 159-8.1 61.4-50.8 110.3-109.5 129-56.6 18.1-124.1 8-166.7-35.6C8.3 212.2-9.4 139.9 38.3 97.5c40.3-35.8 110.8-35.2 147.5 5.3s33.9 105.4 3.8 148.9c-37.8 54.8-110.8 61.2-171.4 53.6-73.4-9-149.5-40.3-223.4-17.6-58.3 18-105 66.1-126 122.9-10.7 28.3-14.2 58.9-10.1 89 4.7 32.7 22.7 67.1 52 84.1 32.6 18.9 69.2 3.9 86.7-27.8 19.3-35 11.9-76.7 3.6-113.7-15.7-70.6-42.7-146.2-101.4-192.6-52-41-129.7-57.2-186.3-15.6-64.1 47.1-73.7 134-61.9 206.9 6.3 39.5 17.7 78.2 28.8 116.6 11.2 39.1 22.7 78.1 32.1 117.7 17.7 75 27.5 152.9 12.1 229.3-14.4 71.7-50.8 139.2-112.9 180-57.8 38.2-128.9 51.2-197.2 49.2-85.3-2.5-168.4-26.2-250.8-46.4l-264.3-64.8-126.7-31.1c-2.7-.7-2-5 .7-4.4l261.1 64c84.9 20.9 169.6 43.7 255.2 61.7 76.2 16 155.9 25 232.4 5.6 33.8-8.6 66.6-22.5 95.1-43 30.8-22.4 55.9-51.8 73.3-85.8 76.8-147.2 18.2-313.9-23.2-461.8-19.6-70.5-37.9-147.3-12.3-218.8 11.1-31 30.1-59.9 57-79.3 24.5-17.3 54.2-25.9 84.2-24.5 65 2.6 121.1 43.1 155.6 96.4 19.2 29.8 32.6 63.1 42.7 97 10.3 34.6 20.4 72.2 19.6 108.5-.6 31-12.7 64-40.3 80.8-24.7 14.9-53.9 9.9-75.7-7.6-47.5-38.2-53.6-106.8-36.5-161.6 17.1-54.3 57-101.8 108.6-126 65.7-30.8 137.9-12.4 205.4 1 64 12.7 145.4 22.1 196.8-28 41.1-40 50.4-113.7 11.7-158.3-39.1-45.2-122.4-41-156.2 8.7-40.4 59.7 9.1 137.9 66.4 163.4 57.3 25.4 129.8 14.2 177.1-27 49.2-43 61.4-114.9 40.1-175C301.1 48.2 282.6 22.7 258 4c-2.3-1.7.5-5 2.8-3.4z" style="fill:#ff4c0d"/></symbol><symbol viewBox="0 0 60 39" id="--logo"><path fill-rule="evenodd" clip-rule="evenodd" d="M59.369 0c.345 0 .631.282.631.63v37.744a.633.633 0 0 1-.631.626h-8.13a.63.63 0 0 1-.631-.626V.63A.63.63 0 0 1 51.239 0h8.13ZM24.093 0c6.132 0 12.544.286 15.705 3.505 3.111 3.169 3.447 9.476 3.46 15.602v19.267a.63.63 0 0 1-.632.626H34.5a.632.632 0 0 1-.633-.626V18.775c-.009-3.421-.202-6.937-1.936-8.707-1.493-1.523-4.279-1.872-7.175-1.945H10.023a.63.63 0 0 0-.63.626v29.625a.633.633 0 0 1-.632.626H.628A.629.629 0 0 1 0 38.374V.63C0 .282.28 0 .628 0h23.465Zm1.82 15.032c.345 0 .625.282.625.626v22.716c0 .342-.28.626-.625.626h-8.54a.631.631 0 0 1-.632-.626V15.657a.63.63 0 0 1 .633-.625h8.539Z"/></symbol><symbol fill="none" viewBox="0 0 620 530" id="--mobile-line" xmlns="http://www.w3.org/2000/svg"><g clip-path="url(#fa)"><mask id="fb" style="mask-type:luminance" maskUnits="userSpaceOnUse" x="0" y="0" width="620" height="530"><path d="M0 0h620v530H114L57 338H0V0Z" fill="#fff"/></mask><g mask="url(#fb)"><path d="M933.8 92.4c33.7 50.3 34.2 117.8 7.1 171.1-28.1 55.3-84.6 87.1-146.2 85.3-59.4-1.9-119.7-33.9-145.4-89.2-24-51.7-16.6-125.8 42.5-149.9 49.9-20.4 116.1 3.7 137.3 54.1 21.1 50.4-3.2 110.7-45.9 141.7-54 39-125 20.8-179.6-6.6-66.2-32.9-127.5-87.7-204.8-90.9-61-2.5-121 27.4-159.7 73.9-19.5 23.2-33 50.9-39.1 80.5-6.5 32.5-1 70.8 21 96.7 24.5 28.7 63.9 26.7 91 2.6 29.8-26.6 36.7-68.3 41.3-106 8.6-71.8 8.3-152-31.5-215.3-35.4-56.1-103.3-97.1-170.5-76.8C75.1 86.7 37.2 165.5 24 238.1c-7.2 39.4-9.3 79.6-11.6 119.5-2.5 40.6-4.6 81.2-8.9 121.7-8.3 76.6-25 153.4-65 220.3-37.5 62.7-94.2 114.2-166.4 132.1-67.2 16.7-138.6 5.4-202.3-19.3-79.6-30.8-150.1-80.8-221.1-127.3L-878.9 536-988 464.5c-2.3-1.5-.2-5.4 2.1-3.9L-761 607.9c73.1 48 145.4 97.7 220.1 143.2 66.5 40.4 138.7 75.4 217.2 82.6 34.8 3.2 70.3 1 104-8.8 36.6-11 70-30.3 97.8-56.5C-.5 655.1-.3 478.4 10 325.2c4.9-73 13.2-151.5 61.2-210.5C92 89.2 119.5 68.2 151.3 59c28.9-8.2 59.8-6.5 87.6 4.9 60.5 24.1 99.8 80.9 114.6 142.7 8.2 34.5 9.8 70.3 8 105.7-1.9 36-4.8 74.8-17.6 108.8-11 29-33.3 56.1-64.9 62.8-28.3 5.9-54.1-8.7-68.9-32.4-32.1-51.8-15-118.6 19.4-164.5 34.1-45.5 87.6-77 144.3-82.7 72.3-7.1 134.2 34.3 193.4 69.4 56.1 33.3 129.7 69.2 194.9 39.1 52-24.1 85.3-90.4 63.7-145.4C804 111.8 724 88 675.7 123.7c-58 42.7-37.4 133 8.1 176 45.6 43.1 117.7 56.7 176 33.6 60.8-24.2 96.2-87.9 96.1-151.7.1-30.9-8.9-61.1-25.9-86.9-1.6-2.4 2.3-4.6 3.8-2.3Z" fill="#FF4C0D"/></g></g><defs><clipPath id="fa"><path fill="#fff" d="M0 0h620v530H0z"/></clipPath></defs></symbol><symbol fill="none" viewBox="0 0 1440 719" id="--scooter-pro" xmlns="http://www.w3.org/2000/svg"><path d="M-79.905 155.908c-1.308-55.371 31.38-107.689 78.437-135.596C47.282-8.59 106.499-5.504 153.154 26.107c45.015 30.533 75.845 84.756 68.568 140.042-6.81 51.715-48.833 105.343-106.243 94.995-48.48-8.746-87.88-59.782-79.51-109.077 8.37-49.294 56.684-83.907 104.886-86.868 60.819-3.718 106.639 45.147 135.415 92.984 34.978 57.914 55.493 130.258 113.609 170.606 45.82 31.812 106.793 38.138 159.488 21.18a166.835 166.835 0 0 0 69.702-43c20.861-21.893 35.458-54.199 31.121-84.907-4.82-34.161-36.239-51.982-69.007-46.648-36.021 5.897-61.795 34.768-83.751 61.598-41.915 51.246-80.983 113.323-81.229 181.744-.145 60.578 32.199 125.603 94.043 142.812 70.113 19.504 138.007-22.748 183.78-72.348 24.828-26.914 46.161-56.942 67.547-86.596 21.747-30.146 43.305-60.467 66.475-89.594 43.961-55.143 94.489-106.183 158.11-138.263 59.682-30.1 128.772-42.048 193.252-20.469 60.07 20.01 109.59 63.752 146.69 114.019 46.42 62.774 76.35 135.96 108.36 206.622l102.68 226.643 49.23 108.679c1.06 2.338-2.45 4.27-3.53 1.953l-101.45-223.922c-33-72.851-64.45-146.645-99.85-218.367-31.52-63.842-70.06-126.216-127.21-170.274-25.31-19.514-53.81-35.167-84.62-44.103a223.202 223.202 0 0 0-103.18-4.273C917.247 179.22 830.527 315.523 747.517 428.839c-39.564 53.973-84.483 110.487-150.424 132.474-28.498 9.53-60.035 12.25-89.154 3.828a123.144 123.144 0 0 1-65.18-46.742c-34.909-48.218-37.468-111.383-18.591-166.298 10.6-30.7 26.917-59.151 45.608-85.544 19.108-26.954 40.367-55.455 66.956-75.435 22.646-17.006 53.189-26.992 80.844-16.616 24.704 9.283 37.562 33.156 37.295 58.736-.58 55.716-46.522 98.881-95.562 117.479-48.64 18.428-105.349 16.576-151.951-6.861-59.295-29.873-86.8-92.163-115.311-148.305-26.987-53.18-66.277-116.991-131.333-125.664-51.965-6.931-110.213 27.957-120.457 81.015-10.388 53.607 39.67 111.201 94.524 107.337 65.742-4.609 94.046-84.386 79.982-139.96C200.699 62.709 151.665 16.863 95.269 6.141 36.567-4.98-22.062 26.871-53.173 76.18a143.237 143.237 0 0 0-22.664 79.798c.06 2.617-3.96 2.444-4.068-.069Z" fill="#FF4C0D"/></symbol><symbol fill="none" viewBox="0 0 1440 341" id="--speed-line-left" xmlns="http://www.w3.org/2000/svg"><path d="M1510.8 92.367c-27.88-64.646-101.08-105.434-170.54-88.544a149.72 149.72 0 0 0-84.47 55.89 134.684 134.684 0 0 0-24.45 97.475c4.37 33.177 20.27 65.287 46.06 86.972 23.73 19.976 57.47 30.207 88.08 23.296 31.74-7.241 52.29-34.381 53.72-66.452 1.58-35.177-15.9-69.286-40.14-93.708-25.55-25.606-60.86-41.894-97.35-35.196-36.5 6.697-60.3 35.215-65.75 71.188-6.45 42.438 10.28 82.798 17.88 123.838a202.6 202.6 0 0 1-9.45 107.316c-24.34 66.258-81.05 121.877-150.4 138.553-37.94 9.124-82.219 7.183-114.638-16.637-29.51-21.685-41.985-60.667-34.807-96.057 7.257-35.74 34.632-62.026 70.117-69.461 35.178-7.358 73.358 4.426 94.778 34.07 20.54 28.402 24.21 67.209 12.96 99.979-12.42 35.915-43.46 62.2-78.58 74.741-79.543 28.169-161.146-14.696-212.016-75.556-53.277-63.734-78.984-144.591-126.11-212.285-40.646-58.415-106.708-115.063-182.374-110.345-74.928 4.601-127.312 69.208-150.38 135.582-29.393 84.545-24.679 176.661-50.017 262.255-22.739 76.838-74.094 153.675-157.152 171.866a128.284 128.284 0 0 1-107.852-24.189C9.67 664.749-10.313 630.019-6.531 593.25c3.881-38.05 32.033-70.548 66.237-85.788 40.743-18.132 89.519-12.191 128.457 7.766 62.686 32.168 102.479 102.055 102.479 172.079-.155 82.662-59.369 149.172-124.829 192.289-36.339 23.917-75.666 42.709-114.915 61.327-2.541 1.203-.33 4.969 2.212 3.882 76.674-36.516 157.481-75.712 206.47-148.376 20.604-30.517 33.972-65.811 35.311-102.89a201.278 201.278 0 0 0-22.234-97.61c-33.099-65.132-103.41-111.898-178.164-102.367-35.854 4.563-68.991 23.821-88.936 54.358a99.058 99.058 0 0 0-7.877 95.377c14.027 31.256 42.082 55.581 73.88 67.578 33.759 12.755 71.165 9.182 104.012-4.698 75.666-31.993 117.185-107.414 136.47-183.669 10.903-43.04 15.792-87.166 21.516-131.118 6.014-46.301 13.367-93.611 32.827-136.475 15.851-34.944 40.219-67.267 72.891-87.943a137.567 137.567 0 0 1 112.529-15.686c80.535 23.296 130.979 96.873 168.191 166.955 38.085 71.713 72.639 149.793 141.63 197.589 31.877 22.092 69.846 36.885 108.998 37.118 35.466.233 71.416-11.338 98.946-33.993a118.453 118.453 0 0 0 43.56-87.845c1.05-31.644-10.54-64.53-35.24-85.166-24.69-20.637-59.69-26.208-90.29-17.919-31.411 8.523-56.264 31.799-65.344 63.229-8.808 30.46-3.201 65.404 16.2 90.699 22.719 29.644 61.386 40.982 97.434 40.322 69.57-1.301 132.84-43.544 169.88-100.949a223.707 223.707 0 0 0 34.65-95.242 197.26 197.26 0 0 0-.93-51.717c-3.55-23.587-10.79-46.398-15.74-69.694-8.4-39.623-9.06-90.582 28.51-116.13 36.28-24.694 83.42-13.182 114.85 13.589 29.1 24.888 51.2 63.579 47.44 102.988-1.79 18.597-10.61 36.283-25.98 47.31-14.26 10.231-32.19 13.589-49.47 12.405-79.65-5.824-121.77-98.659-97.69-168.78 12.73-36.962 43.17-66.51 79.06-81.302a138.2 138.2 0 0 1 111.87 2.99 152.124 152.124 0 0 1 74.68 76.818c1.12 2.582 4.88.35 3.78-2.194Z" fill="#FF4C0D"/></symbol><symbol viewBox="0 0 296 157" id="--speed-line-right" xmlns="http://www.w3.org/2000/svg"><path d="M65.1-160.4C16.7-124.2-6.3-60.7 1.5-1.4 9.6 60 52.3 108.9 111 127.6c56.6 18.1 124.1 8 166.7-35.6 39.9-40.8 57.6-113.1 9.9-155.5-40.2-35.8-110.7-35.2-147.5 5.3-36.7 40.5-33.8 105.4-3.8 148.9 37.9 54.8 110.8 61.2 171.4 53.6 73.4-9 149.5-40.3 223.4-17.6 58.4 18 105 66.1 126 122.9 10.7 28.3 14.2 58.9 10.1 89-4.7 32.7-22.6 67.1-52 84.1-32.6 18.9-69.2 3.9-86.7-27.8-19.3-35-11.9-76.7-3.6-113.7 15.7-70.6 42.7-146.2 101.4-192.6 52-41 129.8-57.2 186.3-15.6 64.2 47.1 73.7 134 62 206.9-6.4 39.5-17.8 78.2-28.9 116.6-11.2 39.1-22.7 78.1-32.1 117.7-17.7 75-27.5 153-12.1 229.3 14.4 71.7 50.8 139.2 112.9 180 57.8 38.2 128.9 51.2 197.2 49.2 85.3-2.5 168.5-26.2 250.8-46.4l264.3-64.8 126.7-31.1c2.7-.7 2-5-.7-4.4l-261.1 64c-84.9 20.9-169.6 43.7-255.2 61.7-76.2 16-155.9 25-232.4 5.6-33.8-8.6-66.5-22.5-95-42.9-30.9-22.5-56-51.9-73.4-85.9-76.8-147.2-18.2-313.9 23.2-461.8 19.7-70.5 37.9-147.3 12.3-218.8-11.1-31-30-59.9-57-79.3-24.5-17.3-54.2-25.9-84.2-24.5-65 2.6-121.1 43.1-155.5 96.4-19.3 29.8-32.7 63.1-42.8 97-10.3 34.6-20.4 72.2-19.6 108.5.6 31 12.7 64 40.3 80.8 24.7 14.9 53.9 9.9 75.7-7.6 47.5-38.2 53.6-106.8 36.5-161.6-17.1-54.3-57-101.8-108.6-126-65.7-30.8-137.9-12.4-205.4 1-64 12.7-145.4 22.1-196.8-28-41-40-50.4-113.7-11.7-158.3 39.1-45.2 122.4-41 156.2 8.7 40.4 59.7-9.1 137.9-66.4 163.4-57.2 25.4-129.8 14.2-177.1-27-49.2-43-61.4-114.9-40.1-175C24.8-112.8 43.3-138.3 68-157c2.2-1.7-.6-5-2.9-3.4z" style="fill:#ff4c0d"/></symbol><symbol fill="none" viewBox="0 0 128 40" id="--white-android" xmlns="http://www.w3.org/2000/svg"><g clip-path="url(#ja)"><path d="M124 .5H4A3.5 3.5 0 0 0 .5 4v32A3.5 3.5 0 0 0 4 39.5h120a3.5 3.5 0 0 0 3.5-3.5V4A3.5 3.5 0 0 0 124 .5Z" fill="#F1F1F1" stroke="#f1f1f1"/><path d="M11.392 8.352c-.262.277-.417.707-.417 1.265V29.52c0 .558.155.987.417 1.264l11.217-11.217L11.392 8.352ZM11.458 8.287l-.066.065c.022-.023.053-.033.076-.055l-.01-.01ZM11.459 30.85l.01-.01c-.024-.021-.055-.031-.077-.055l.067.065Z" fill="#00E3FF"/><path d="m30.814 18.27-4.404-2.502-3.801 3.8 3.8 3.802 4.404-2.501c1.259-.715 1.259-1.884 0-2.6Z" fill="#FFE000"/><path d="M22.609 19.568 11.392 30.785c.022.024.053.034.077.055.42.376 1.063.415 1.793 0l13.063-7.421.085-.05-3.801-3.801Z" fill="#FF3A44"/><path d="m22.609 19.569 3.8-3.801v-.001l-13.147-7.47c-.73-.415-1.375-.376-1.794 0-.023.022-.054.032-.076.055l11.217 11.217Z" fill="#00F076"/><path d="M56.003 22.233c-2.117 0-3.842 1.609-3.842 3.828 0 2.204 1.725 3.828 3.842 3.828s3.842-1.624 3.842-3.828c0-2.218-1.725-3.828-3.842-3.828Zm0 6.148c-1.16 0-2.16-.957-2.16-2.32 0-1.377 1-2.32 2.16-2.32 1.16 0 2.16.942 2.16 2.32 0 1.363-1 2.32-2.16 2.32ZM64.385 22.233c-2.117 0-3.842 1.609-3.842 3.828 0 2.204 1.725 3.828 3.842 3.828s3.842-1.624 3.842-3.828c.001-2.218-1.725-3.828-3.842-3.828Zm0 6.148c-1.16 0-2.16-.957-2.16-2.32 0-1.377 1.001-2.32 2.16-2.32 1.159 0 2.16.942 2.16 2.32.001 1.363-1 2.32-2.16 2.32ZM100.985 18.406h-1.68v11.251h1.68V18.406ZM46.032 23.409v1.623h3.886c-.116.913-.42 1.58-.885 2.044-.565.565-1.45 1.189-3.001 1.189-2.392 0-4.263-1.928-4.263-4.321s1.87-4.321 4.263-4.321c1.291 0 2.233.508 2.929 1.16l1.145-1.145C49.135 18.71 47.844 18 46.032 18 42.755 18 40 20.668 40 23.945s2.755 5.945 6.032 5.945c1.769 0 3.103-.58 4.147-1.667 1.073-1.073 1.407-2.581 1.407-3.799 0-.377-.029-.725-.087-1.015h-5.467ZM105.11 22.213c-1.216 0-2.475.536-2.996 1.723l1.491.622c.318-.622.912-.825 1.534-.825.868 0 1.751.521 1.766 1.447v.116c-.304-.174-.955-.434-1.751-.434-1.607 0-3.242.883-3.242 2.533 0 1.505 1.317 2.475 2.794 2.475 1.129 0 1.751-.507 2.142-1.1h.058v.868h1.621v-4.314c-.001-1.997-1.492-3.111-3.417-3.111Zm-.203 6.166c-.55 0-1.317-.275-1.317-.955 0-.868.955-1.201 1.78-1.201.738 0 1.086.159 1.534.376a2.034 2.034 0 0 1-1.997 1.78ZM112.507 27.337h-.058l-1.997-4.878h-1.809l2.996 6.818-1.708 3.792h1.751l4.618-10.61h-1.868l-1.925 4.878ZM74.675 23.089h-.059c-.377-.449-1.102-.855-2.015-.855-1.914 0-3.668 1.682-3.668 3.842 0 2.146 1.754 3.813 3.668 3.813.913 0 1.638-.406 2.015-.87h.058v.551c0 1.464-.783 2.247-2.044 2.247-1.029 0-1.667-.739-1.928-1.363l-1.464.609c.42 1.015 1.537 2.262 3.393 2.262 1.972 0 3.64-1.16 3.64-3.987v-6.873h-1.596v.624Zm-1.93 5.292c-1.16 0-2.13-.971-2.13-2.305 0-1.348.971-2.334 2.13-2.334 1.145 0 2.044.986 2.044 2.334.001 1.334-.898 2.305-2.044 2.305ZM94.688 18.406h-4.024v11.251h1.68v-4.263h2.344c1.862 0 3.691-1.348 3.691-3.494s-1.829-3.494-3.69-3.494Zm.044 5.422h-2.389v-3.857h2.388c1.256 0 1.97 1.04 1.97 1.928 0 .873-.714 1.929-1.969 1.929ZM79.111 18.406h-1.682v11.251h1.682V18.406ZM86.81 24.669c-.319-.855-1.29-2.436-3.277-2.436-1.972 0-3.61 1.551-3.61 3.828 0 2.146 1.624 3.828 3.8 3.828 1.753 0 2.768-1.073 3.19-1.696l-1.306-.87c-.435.638-1.029 1.058-1.885 1.058-.856 0-1.464-.392-1.856-1.16l5.118-2.117-.174-.435Zm-5.22 1.276c-.044-1.479 1.145-2.233 2.001-2.233.667 0 1.233.333 1.421.812l-3.422 1.421ZM40.343 13.18l.813-.21c.061.313.225.627.492.94.27.314.625.47 1.068.47.451 0 .807-.115 1.068-.347.26-.231.39-.511.39-.84 0-.354-.137-.635-.412-.843-.276-.21-.65-.316-1.125-.316h-.409v-.743c.393 0 .693-.022.9-.066a1.01 1.01 0 0 0 .55-.347.95.95 0 0 0 .242-.637.979.979 0 0 0-.33-.734c-.217-.208-.51-.312-.883-.312-.325 0-.604.082-.835.246a1.24 1.24 0 0 0-.474.646c-.088.267-.132.466-.132.598l-.818-.185c.202-1.368.958-2.052 2.268-2.052.63 0 1.13.176 1.498.527.37.349.554.757.554 1.226 0 .6-.284 1.067-.852 1.398.328.09.602.277.821.558.223.278.334.612.334 1.002 0 .553-.215 1.018-.646 1.393-.427.372-.996.558-1.705.558-1.218 0-2.011-.643-2.377-1.93Zm8.736 1.244a2.937 2.937 0 0 1-.848.528c-.27.102-.56.153-.87.153-.513 0-.907-.124-1.182-.373a1.247 1.247 0 0 1-.413-.962c0-.229.05-.437.153-.624.106-.19.242-.343.41-.458.169-.114.36-.2.57-.259.156-.04.39-.08.703-.119.64-.076 1.11-.166 1.411-.272l.005-.207c0-.322-.075-.549-.224-.68-.203-.18-.503-.269-.901-.269-.373 0-.648.066-.827.198-.175.129-.306.359-.39.69l-.774-.105c.07-.331.186-.598.347-.8.161-.205.394-.362.699-.47a3.08 3.08 0 0 1 1.059-.168c.398 0 .722.047.971.141.25.094.432.213.55.356.117.14.199.32.245.536.027.135.04.378.04.73v1.054c0 .736.016 1.202.048 1.398.036.193.103.38.203.558h-.827a1.678 1.678 0 0 1-.158-.576Zm-.066-1.766c-.287.117-.718.216-1.292.299-.325.046-.555.1-.69.158a.684.684 0 0 0-.422.633c0 .21.08.386.238.527.16.14.395.21.703.21.305 0 .576-.065.813-.197.237-.135.411-.318.523-.55.085-.178.127-.442.127-.79v-.29Zm2.035-2.325h1.824c.448 0 .78.038.997.114.22.074.407.21.563.409.158.2.237.438.237.716 0 .223-.047.418-.14.585-.092.164-.23.302-.414.413.22.073.402.21.545.413.147.2.22.436.22.712-.03.442-.188.77-.475.984-.287.214-.704.321-1.252.321h-2.105v-4.667Zm.79 1.964h.845c.337 0 .568-.017.694-.052a.732.732 0 0 0 .338-.211c.1-.109.15-.238.15-.387 0-.246-.088-.418-.264-.514-.173-.097-.47-.145-.892-.145h-.87v1.31Zm0 2.053h1.042c.449 0 .756-.052.923-.154.167-.106.255-.286.264-.54a.664.664 0 0 0-.145-.414.615.615 0 0 0-.378-.242c-.155-.035-.404-.052-.747-.052h-.958v1.402Zm6.927.074a2.935 2.935 0 0 1-.849.528c-.269.102-.56.153-.87.153-.512 0-.906-.124-1.182-.373a1.247 1.247 0 0 1-.413-.962c0-.229.051-.437.154-.624.105-.19.242-.343.409-.458.17-.114.36-.2.571-.259.155-.04.39-.08.703-.119.639-.076 1.109-.166 1.41-.272.004-.108.005-.177.005-.207 0-.322-.075-.549-.224-.68-.202-.18-.502-.269-.9-.269-.373 0-.648.066-.827.198-.176.129-.306.359-.391.69l-.774-.105c.07-.331.186-.598.348-.8.16-.205.394-.362.698-.47a3.08 3.08 0 0 1 1.06-.168c.398 0 .722.047.97.141.25.094.433.213.55.356.117.14.2.32.246.536.026.135.04.378.04.73v1.054c0 .736.016 1.202.048 1.398.035.193.102.38.202.558h-.826a1.678 1.678 0 0 1-.158-.576Zm-.066-1.766c-.287.117-.718.216-1.292.299-.325.046-.555.1-.69.158a.683.683 0 0 0-.422.633c0 .21.079.386.237.527.161.14.396.21.703.21.305 0 .576-.065.813-.197.238-.135.412-.318.523-.55.085-.178.128-.442.128-.79v-.29Zm2.034-2.325h.791v1.942h2.193v-1.942h.791V15h-.79v-2.07h-2.194V15h-.79v-4.667Zm4.544 0h3.793v.655h-1.503V15h-.787v-4.012h-1.503v-.655Zm7.489 4.091a2.936 2.936 0 0 1-.849.528c-.27.102-.56.153-.87.153-.512 0-.906-.124-1.182-.373a1.247 1.247 0 0 1-.413-.962c0-.229.051-.437.154-.624.105-.19.242-.343.409-.458.17-.114.36-.2.57-.259.156-.04.39-.08.704-.119.639-.076 1.109-.166 1.41-.272.004-.108.005-.177.005-.207 0-.322-.075-.549-.224-.68-.202-.18-.502-.269-.9-.269-.373 0-.648.066-.827.198-.176.129-.306.359-.391.69l-.774-.105c.07-.331.186-.598.348-.8.16-.205.394-.362.698-.47a3.08 3.08 0 0 1 1.06-.168c.398 0 .721.047.97.141.25.094.433.213.55.356.117.14.2.32.246.536.026.135.04.378.04.73v1.054c0 .736.016 1.202.048 1.398.035.193.102.38.202.558h-.826a1.68 1.68 0 0 1-.158-.576Zm-.066-1.766c-.287.117-.718.216-1.292.299-.326.046-.555.1-.69.158a.683.683 0 0 0-.422.633c0 .21.079.386.237.527.161.14.396.21.703.21.305 0 .576-.065.813-.197.238-.135.412-.318.523-.55.085-.178.128-.442.128-.79v-.29Zm4.851-2.325v2.017c.252 0 .43-.048.532-.145.103-.097.252-.378.448-.844.185-.442.35-.725.497-.848.143-.12.372-.18.685-.18h.29v.655l-.215-.005c-.21 0-.346.031-.404.093-.062.064-.156.256-.281.575-.118.305-.226.516-.326.633-.1.117-.255.224-.466.321.343.09.677.407 1.002.95l.87 1.445h-.87l-.848-1.446c-.172-.293-.323-.485-.452-.575a.78.78 0 0 0-.462-.137V15h-.808v-2.158a.774.774 0 0 0-.457.136c-.13.088-.28.28-.453.576L74.985 15h-.87l.866-1.446c.328-.542.663-.858 1.006-.949-.235-.108-.399-.226-.492-.352-.094-.129-.235-.433-.422-.914-.065-.16-.133-.26-.207-.299a.783.783 0 0 0-.338-.057l-.233.005v-.655h.11c.305 0 .518.02.641.057a.655.655 0 0 1 .334.233c.1.117.229.363.387.738.193.46.34.74.44.84.102.1.28.15.536.15v-2.018h.808Zm3.2 0h.79v3.56l2.193-3.56h.853V15h-.791v-3.538L81.603 15h-.852v-4.667Zm4.6 0h3.793v.655h-1.503V15h-.787v-4.012h-1.502v-.655Zm4.549 0h.79v3.56l2.194-3.56h.852V15h-.79v-3.538L90.751 15H89.9v-4.667Zm7.536 0h1.824c.448 0 .781.038.998.114.22.074.407.21.562.409.159.2.238.438.238.716 0 .223-.047.418-.141.585a1.121 1.121 0 0 1-.413.413c.22.073.401.21.545.413.146.2.22.436.22.712-.03.442-.188.77-.475.984-.287.214-.705.321-1.252.321h-2.106v-4.667Zm.791 1.964h.844c.337 0 .569-.017.695-.052a.734.734 0 0 0 .338-.211.55.55 0 0 0 .149-.387c0-.246-.087-.418-.263-.514-.173-.097-.47-.145-.892-.145h-.87v1.31Zm0 2.053h1.042c.448 0 .756-.052.923-.154.167-.106.255-.286.264-.54a.668.668 0 0 0-.145-.414.616.616 0 0 0-.378-.242c-.156-.035-.405-.052-.748-.052h-.957v1.402Z" fill="#000"/></g><defs><clipPath id="ja"><path fill="#fff" d="M0 0h128v40H0z"/></clipPath></defs></symbol><symbol fill="none" viewBox="0 0 120 40" id="--white-apple" xmlns="http://www.w3.org/2000/svg"><g clip-path="url(#ka)"><path d="M110.135 0H9.535c-.367 0-.73 0-1.095.002-.306.002-.61.008-.919.013C6.85.023 6.18.082 5.517.19a6.665 6.665 0 0 0-1.9.627A6.438 6.438 0 0 0 .193 5.521a12.993 12.993 0 0 0-.179 2.002c-.01.307-.01.615-.015.921V31.56c.005.31.006.61.015.921.008.671.068 1.34.18 2.002.11.663.32 1.306.624 1.905.303.598.701 1.143 1.179 1.614.473.477 1.019.875 1.618 1.179.599.304 1.24.517 1.901.63.663.11 1.333.168 2.004.177.31.007.613.011.919.011.366.002.728.002 1.095.002h100.6c.359 0 .724 0 1.084-.002.304 0 .617-.004.922-.01.67-.01 1.338-.068 2-.178a6.808 6.808 0 0 0 1.908-.63A6.296 6.296 0 0 0 117.666 38a6.405 6.405 0 0 0 1.182-1.614c.302-.6.51-1.242.619-1.905.111-.661.173-1.33.185-2.002.004-.31.004-.61.004-.921.008-.364.008-.725.008-1.094V9.536c0-.366 0-.73-.008-1.092 0-.306 0-.614-.004-.92a13.57 13.57 0 0 0-.185-2.003 6.648 6.648 0 0 0-.619-1.903 6.469 6.469 0 0 0-2.799-2.8 6.77 6.77 0 0 0-1.908-.627c-.661-.11-1.33-.169-2-.176-.305-.005-.618-.011-.922-.013-.36-.002-.725-.002-1.084-.002Z" fill="#F1F1F1"/><path d="M8.445 39.125c-.305 0-.602-.004-.904-.01a12.696 12.696 0 0 1-1.87-.164 5.884 5.884 0 0 1-1.656-.548 5.406 5.406 0 0 1-1.397-1.016 5.321 5.321 0 0 1-1.02-1.397 5.722 5.722 0 0 1-.544-1.657 12.413 12.413 0 0 1-.166-1.875c-.007-.21-.015-.913-.015-.913v-23.1s.009-.692.015-.895a12.37 12.37 0 0 1 .165-1.872 5.755 5.755 0 0 1 .544-1.662c.26-.518.603-.99 1.015-1.398A5.565 5.565 0 0 1 5.668 1.05C6.288.95 6.915.895 7.543.887l.902-.012h102.769l.913.013a12.37 12.37 0 0 1 1.858.162 5.933 5.933 0 0 1 1.671.548 5.589 5.589 0 0 1 2.415 2.42c.261.52.441 1.076.536 1.649.103.624.161 1.255.173 1.887.003.283.003.588.003.89.008.375.008.732.008 1.092v20.929c0 .363 0 .718-.008 1.075 0 .325 0 .623-.004.93-.011.62-.068 1.24-.171 1.853a5.716 5.716 0 0 1-.54 1.67 5.47 5.47 0 0 1-1.015 1.386 5.414 5.414 0 0 1-1.4 1.022 5.855 5.855 0 0 1-1.668.55c-.618.101-1.243.156-1.869.163-.293.007-.599.011-.897.011l-1.084.002-101.69-.002Z" fill="#F1F1F1"/><path d="M24.997 19.89a5.147 5.147 0 0 1 2.45-4.318 5.268 5.268 0 0 0-4.15-2.244c-1.746-.183-3.44 1.045-4.329 1.045-.907 0-2.277-1.027-3.752-.997a5.529 5.529 0 0 0-4.652 2.837c-2.011 3.482-.51 8.6 1.416 11.414.963 1.378 2.09 2.918 3.564 2.863 1.442-.06 1.981-.92 3.722-.92 1.725 0 2.23.92 3.735.886 1.547-.026 2.522-1.385 3.452-2.776a11.4 11.4 0 0 0 1.58-3.216 4.973 4.973 0 0 1-3.036-4.575ZM22.156 11.477a5.067 5.067 0 0 0 1.16-3.63 5.156 5.156 0 0 0-3.336 1.726 4.823 4.823 0 0 0-1.19 3.495 4.261 4.261 0 0 0 3.366-1.591ZM42.302 27.14h-4.734l-1.136 3.356h-2.005l4.483-12.418h2.083l4.484 12.418h-2.04l-1.135-3.356Zm-4.243-1.55h3.752l-1.85-5.446h-.052l-1.85 5.447ZM55.16 25.97c0 2.813-1.507 4.62-3.78 4.62a3.07 3.07 0 0 1-2.848-1.583h-.043v4.484h-1.858V21.442h1.799v1.506h.034a3.212 3.212 0 0 1 2.883-1.6c2.298 0 3.812 1.816 3.812 4.622Zm-1.911 0c0-1.833-.947-3.038-2.393-3.038-1.42 0-2.375 1.23-2.375 3.038 0 1.824.956 3.046 2.375 3.046 1.446 0 2.393-1.197 2.393-3.046ZM65.124 25.97c0 2.813-1.506 4.62-3.778 4.62a3.07 3.07 0 0 1-2.849-1.583h-.043v4.484h-1.858V21.442h1.799v1.506h.034a3.213 3.213 0 0 1 2.883-1.6c2.297 0 3.813 1.816 3.813 4.622Zm-1.91 0c0-1.833-.947-3.038-2.393-3.038-1.42 0-2.375 1.23-2.375 3.038 0 1.824.955 3.046 2.375 3.046 1.446 0 2.393-1.197 2.393-3.046ZM71.71 27.036c.137 1.232 1.334 2.04 2.968 2.04 1.567 0 2.694-.809 2.694-1.919 0-.964-.68-1.54-2.29-1.936l-1.609-.388c-2.28-.55-3.339-1.617-3.339-3.348 0-2.142 1.867-3.614 4.518-3.614 2.625 0 4.424 1.472 4.484 3.614H77.26c-.112-1.239-1.136-1.987-2.634-1.987-1.497 0-2.521.757-2.521 1.858 0 .878.654 1.395 2.255 1.79l1.368.336c2.548.603 3.606 1.626 3.606 3.443 0 2.323-1.85 3.778-4.794 3.778-2.753 0-4.613-1.42-4.733-3.667h1.903ZM83.346 19.3v2.142h1.722v1.472h-1.722v4.991c0 .776.345 1.137 1.102 1.137.204-.004.408-.018.611-.043v1.463c-.34.064-.686.092-1.032.086-1.833 0-2.548-.689-2.548-2.444v-5.19h-1.316v-1.472h1.316V19.3h1.867ZM86.064 25.97c0-2.849 1.678-4.639 4.294-4.639 2.625 0 4.295 1.79 4.295 4.639 0 2.856-1.661 4.638-4.295 4.638-2.633 0-4.294-1.782-4.294-4.638Zm6.695 0c0-1.954-.895-3.108-2.401-3.108-1.506 0-2.401 1.162-2.401 3.108 0 1.962.895 3.106 2.4 3.106 1.507 0 2.402-1.144 2.402-3.106ZM96.185 21.442h1.772v1.541h.044a2.16 2.16 0 0 1 2.177-1.635c.214-.001.428.022.637.069v1.738a2.591 2.591 0 0 0-.835-.112 1.872 1.872 0 0 0-1.937 2.083v5.37h-1.858v-9.054ZM109.383 27.837c-.25 1.643-1.85 2.771-3.898 2.771-2.634 0-4.269-1.764-4.269-4.595 0-2.84 1.644-4.682 4.191-4.682 2.505 0 4.08 1.72 4.08 4.466v.637h-6.395v.112a2.353 2.353 0 0 0 .639 1.832 2.364 2.364 0 0 0 1.797.732 2.045 2.045 0 0 0 2.091-1.273h1.764Zm-6.282-2.702h4.526a2.167 2.167 0 0 0-.608-1.634 2.168 2.168 0 0 0-1.612-.664 2.291 2.291 0 0 0-2.306 2.298ZM37.826 8.731a2.64 2.64 0 0 1 2.808 2.965c0 1.906-1.03 3.002-2.808 3.002h-2.155V8.73h2.155Zm-1.228 5.123h1.125a1.877 1.877 0 0 0 1.967-2.146 1.882 1.882 0 0 0-1.967-2.134h-1.125v4.28ZM41.68 12.444a2.132 2.132 0 1 1 4.248 0 2.135 2.135 0 1 1-4.247 0Zm3.334 0c0-.976-.439-1.546-1.208-1.546-.773 0-1.207.57-1.207 1.546 0 .984.434 1.55 1.207 1.55.77 0 1.208-.57 1.208-1.55ZM51.573 14.698h-.922l-.93-3.317h-.07l-.927 3.317h-.913l-1.242-4.503h.902l.806 3.436h.067l.925-3.436h.853l.926 3.436h.07l.803-3.436h.889l-1.237 4.503ZM53.853 10.195h.856v.715h.066a1.348 1.348 0 0 1 1.344-.802 1.464 1.464 0 0 1 1.559 1.675v2.915h-.889v-2.692c0-.724-.314-1.084-.972-1.084a1.03 1.03 0 0 0-1.075 1.141v2.635h-.889v-4.503ZM59.094 8.437h.888v6.26h-.888v-6.26ZM61.218 12.444a2.134 2.134 0 1 1 4.247 0 2.133 2.133 0 1 1-4.247 0Zm3.333 0c0-.976-.439-1.546-1.208-1.546-.773 0-1.207.57-1.207 1.546 0 .984.434 1.55 1.207 1.55.77 0 1.208-.57 1.208-1.55ZM66.4 13.424c0-.81.604-1.277 1.676-1.344l1.22-.07v-.389c0-.476-.315-.744-.922-.744-.497 0-.84.182-.939.5h-.86c.09-.773.818-1.27 1.84-1.27 1.128 0 1.765.563 1.765 1.514v3.077h-.855v-.633h-.07a1.515 1.515 0 0 1-1.353.707 1.36 1.36 0 0 1-1.501-1.348Zm2.895-.384v-.377l-1.1.07c-.62.042-.9.253-.9.65 0 .405.351.64.834.64a1.06 1.06 0 0 0 1.166-.983ZM71.348 12.444c0-1.423.732-2.324 1.87-2.324a1.484 1.484 0 0 1 1.38.79h.067V8.437h.888v6.26h-.851v-.71h-.07a1.564 1.564 0 0 1-1.415.785c-1.145 0-1.869-.901-1.869-2.328Zm.918 0c0 .955.45 1.53 1.203 1.53.75 0 1.212-.583 1.212-1.526 0-.938-.468-1.53-1.212-1.53-.748 0-1.203.58-1.203 1.526ZM79.23 12.444a2.134 2.134 0 1 1 4.247 0 2.135 2.135 0 1 1-4.247 0Zm3.333 0c0-.976-.439-1.546-1.208-1.546-.772 0-1.207.57-1.207 1.546 0 .984.435 1.55 1.207 1.55.77 0 1.208-.57 1.208-1.55ZM84.67 10.195h.855v.715h.066a1.348 1.348 0 0 1 1.344-.802 1.464 1.464 0 0 1 1.559 1.675v2.915h-.889v-2.692c0-.724-.315-1.084-.972-1.084a1.03 1.03 0 0 0-1.075 1.141v2.635h-.889v-4.503ZM93.515 9.074v1.141h.976v.749h-.976v2.315c0 .472.195.678.637.678.113 0 .226-.007.339-.02v.74c-.16.029-.322.044-.484.046-.988 0-1.382-.348-1.382-1.216v-2.543h-.714v-.749h.715V9.074h.89ZM95.705 8.437h.88v2.482h.07a1.385 1.385 0 0 1 1.374-.807 1.482 1.482 0 0 1 1.55 1.678v2.908h-.889V12.01c0-.72-.335-1.084-.963-1.084a1.05 1.05 0 0 0-1.134 1.142v2.63h-.888V8.437ZM104.761 13.482a1.827 1.827 0 0 1-1.951 1.303 2.042 2.042 0 0 1-2.01-1.447 2.034 2.034 0 0 1-.07-.878 2.076 2.076 0 0 1 2.076-2.352c1.253 0 2.009.856 2.009 2.27v.31h-3.18v.05a1.19 1.19 0 0 0 1.199 1.29 1.08 1.08 0 0 0 1.072-.546h.855Zm-3.126-1.451h2.275a1.09 1.09 0 0 0-1.109-1.167 1.146 1.146 0 0 0-.829.338 1.164 1.164 0 0 0-.337.829Z" fill="#000"/></g><defs><clipPath id="ka"><path fill="#fff" d="M0 0h119.664v40H0z"/></clipPath></defs></symbol></svg>