<svg width="620" height="530" viewBox="0 0 620 530" fill="none" xmlns="http://www.w3.org/2000/svg">
<g clip-path="url(#clip0_0_3)">
<mask id="mask0_0_3" style="mask-type:luminance" maskUnits="userSpaceOnUse" x="0" y="0" width="620" height="530">
<path d="M0 0H620V530H114L57 338H0V0Z" fill="white"/>
</mask>
<g mask="url(#mask0_0_3)">
<path d="M933.8 92.4C967.5 142.7 968 210.2 940.9 263.5C912.8 318.8 856.3 350.6 794.7 348.8C735.3 346.9 675 314.9 649.3 259.6C625.3 207.9 632.7 133.8 691.8 109.7C741.7 89.3 807.9 113.4 829.1 163.8C850.2 214.2 825.9 274.5 783.2 305.5C729.2 344.5 658.2 326.3 603.6 298.9C537.4 266 476.1 211.2 398.8 208C337.8 205.5 277.8 235.4 239.1 281.9C219.6 305.1 206.1 332.8 200 362.4C193.5 394.9 199 433.2 221 459.1C245.5 487.8 284.9 485.8 312 461.7C341.8 435.1 348.7 393.4 353.3 355.7C361.9 283.9 361.6 203.7 321.8 140.4C286.4 84.3 218.5 43.3 151.3 63.6C75.1001 86.7 37.2 165.5 24 238.1C16.8 277.5 14.7 317.7 12.4 357.6C9.90002 398.2 7.79999 438.8 3.5 479.3C-4.79999 555.9 -21.5 632.7 -61.5 699.6C-99 762.3 -155.7 813.8 -227.9 831.7C-295.1 848.4 -366.5 837.1 -430.2 812.4C-509.8 781.6 -580.3 731.6 -651.3 685.1L-878.9 536L-988 464.5C-990.3 463 -988.2 459.1 -985.9 460.6L-761 607.9C-687.9 655.9 -615.6 705.6 -540.9 751.1C-474.4 791.5 -402.2 826.5 -323.7 833.7C-288.9 836.9 -253.4 834.7 -219.7 824.9C-183.1 813.9 -149.7 794.6 -121.9 768.4C-0.499939 655.1 -0.299988 478.4 10 325.2C14.9 252.2 23.2001 173.7 71.2001 114.7C92.0001 89.2 119.5 68.2 151.3 59C180.2 50.8 211.1 52.5 238.9 63.9C299.4 88 338.7 144.8 353.5 206.6C361.7 241.1 363.3 276.9 361.5 312.3C359.6 348.3 356.7 387.1 343.9 421.1C332.9 450.1 310.6 477.2 279 483.9C250.7 489.8 224.9 475.2 210.1 451.5C178 399.7 195.1 332.9 229.5 287C263.6 241.5 317.1 210 373.8 204.3C446.1 197.2 508 238.6 567.2 273.7C623.3 307 696.9 342.9 762.1 312.8C814.1 288.7 847.4 222.4 825.8 167.4C804 111.8 724 88 675.7 123.7C617.7 166.4 638.3 256.7 683.8 299.7C729.4 342.8 801.5 356.4 859.8 333.3C920.6 309.1 956 245.4 955.9 181.6C956 150.7 947 120.5 930 94.7C928.4 92.3 932.3 90.1 933.8 92.4Z" fill="#FF4C0D"/>
</g>
</g>
<defs>
<clipPath id="clip0_0_3">
<rect width="620" height="530" fill="white"/>
</clipPath>
</defs>
</svg>
